<?xml version="1.0" encoding="UTF-8"?>
<svg width="146px" height="163px" viewBox="0 0 146 163" version="1.1" xmlns="http://www.w3.org/2000/svg" xmlns:xlink="http://www.w3.org/1999/xlink">
    <!-- Generator: Sketch 42 (36781) - http://www.bohemiancoding.com/sketch -->
    <title>results</title>
    <desc>Created with Sketch.</desc>
    <defs>
        <linearGradient x1="50%" y1="0%" x2="50%" y2="100%" id="linearGradient-1">
            <stop stop-color="#D6D6D6" offset="0%"></stop>
            <stop stop-color="#C0C0C0" offset="100%"></stop>
        </linearGradient>
        <circle id="path-2" cx="12.4171123" cy="12.4171123" r="12.4171123"></circle>
    </defs>
    <g id="Page-1" stroke="none" stroke-width="1" fill="none" fill-rule="evenodd">
        <rect id="Rectangle-Copy" fill="#B9B9B9" transform="translate(73.000000, 81.500000) rotate(17.000000) translate(-73.000000, -81.500000) " x="18" y="14" width="110" height="135" rx="8"></rect>
        <rect id="Rectangle-Copy-2" fill="#A6A6A6" transform="translate(73.000000, 81.749695) rotate(17.000000) translate(-73.000000, -81.749695) " x="25.5439733" y="21.4922362" width="94.9120535" height="120.514917" rx="2"></rect>
        <path d="M18,21.9906502 C18,17.577536 21.5818,14 25.9995348,14 L120.000465,14 C124.418486,14 128,17.5808875 128,21.9944337 L128,130.979486 L110.030083,130.979485 L110.030079,149 L26.0060736,149 C21.5844412,149 18,145.42385 18,141.00935 L18,21.9906502 Z" id="Rectangle" fill="url(#linearGradient-1)"></path>
        <polygon id="Path-2" fill="#D6D6D6" points="110.070641 130.979685 110.026509 148.95249 128.019248 130.956478"></polygon>
        <polygon id="Path-2-Copy" fill="#A9A9A9" transform="translate(100.996370, 139.998006) rotate(180.000000) translate(-100.996370, -139.998006) " points="92.0441322 131.023207 92 148.996012 109.99274 131"></polygon>
        <g id="Group" opacity="0.391304348" transform="translate(55.000000, 63.000000)">
            <circle id="Oval-3" fill="#222222" cx="18" cy="18" r="18"></circle>
            <circle id="Oval" fill="#8B8B8B" cx="18" cy="18" r="12.4171123"></circle>
            <path d="M18,30.4503701 C22.0702827,30.4503701 24.5729565,26.8831169 24.5729565,23.8304049 C24.5729565,20.7776929 22.2902979,20.3926662 21.2452254,20.3926662 C20.2001528,20.3926662 18.921314,20.73644 17.2574484,22.1115355 C15.5935829,23.486631 13.6684492,23.5691367 13.2696715,23.5691367 C12.8708938,23.5691367 10.2445102,23.3996555 9.14438503,20.8326967 C9.0618793,20.6401833 10.4232238,20.0213904 10.987013,15.4148205 C11.5508021,10.8082506 13.2146677,9.46065699 13.6822002,8.99312452 C13.7509549,8.99312452 11.7983193,8.60809778 11.0695187,7.35676089 C10.3407181,6.10542399 11.9358289,4.3315508 18.0550038,4.24904507 C24.1741788,4.16653934 29.4957983,7.02673797 32.2734912,13.0084034 C35.0511841,18.9900688 31.9434683,31.1459666 24.5042017,31.5721925 C17.0649351,31.9984184 13.9297173,30.4503701 18,30.4503701 Z" id="Path" fill="#222222"></path>
            <g id="Path-+-Path-2-+-Path-3-+-Combined-Shape-Mask" transform="translate(5.582888, 5.582888)">
                <mask id="mask-3" fill="white">
                    <use xlink:href="#path-2"></use>
                </mask>
                <g id="Mask"></g>
                <path d="M18.7365097,23.1313569 C18.7365097,23.1313569 22.5211898,21.2530342 22.6333284,17.0478342 C22.7454671,12.8426342 19.5214804,12.6183568 19.086943,12.6183568 C17.404863,12.6183568 17.0404124,12.9547728 17.0404124,12.9547728 C17.0404124,12.9547728 20.9652657,13.8378648 20.9652657,17.9869955 C20.9652657,20.9306356 18.7365097,23.1313569 18.7365097,23.1313569 Z" id="Path-2" fill="#8B8B8B" mask="url(#mask-3)"></path>
                <path d="M8.55714123,15.9259904 C8.443769,15.9259904 8.30242633,15.9119939 8.62420722,15.7680392 C8.9459881,15.6240846 10.9613526,14.6926137 12.6380004,11.0937485 C14.3146481,7.49488334 15.9465241,6.17640792 18.3208556,6.17640792 C20.6951872,6.17640792 24.368984,8.02132771 24.368984,13.3154454 C24.368984,13.7646432 24.3368984,14.6951245 24.3368984,14.6951245 C24.3368984,14.6951245 23.2780749,10.6844293 18.8181818,10.6844293 C15.9144385,10.6844293 13.540107,12.4972635 12.2406417,13.5400443 C10.9411765,14.582825 10.8404207,14.9693696 9.27272727,15.7218625 C8.87165775,15.9143758 8.67051347,15.9259904 8.55714123,15.9259904 Z" id="Path-3" fill="#F2F2F2" mask="url(#mask-3)"></path>
                <path d="M13.6684492,1.8288018 C13.6684492,1.8288018 8.39358289,2.15607453 7.18074866,0.750726939 C5.96791444,-0.654620655 10.9925134,-1.23223596 14.457754,-0.616117981 C17.9229947,4.68514116e-14 21.1379679,1.32826705 23.2363636,4.25447025 C25.3347594,7.18067346 24.9304813,9.9143633 24.9304813,9.9143633 C24.9304813,9.9143633 24.3721925,4.29297293 18.2502674,4.29297293 C10.8,4.29297293 11.3967914,14.3421708 6.3144385,14.4576788 C6.25277857,14.4590802 7.37326203,11.723989 7.37326203,9.47158255 C7.37326203,7.21917614 9.76042781,3.31115475 13.0909091,2.09832052 C13.3989305,1.9828125 13.6684492,1.8288018 13.6684492,1.8288018 Z M10.7614973,6.77639539 C10.7614973,6.77639539 9.69934557,9.72184993 8.77860963,9.60634191 C7.98930481,7.25767881 10.7614973,6.77639539 10.7614973,6.77639539 Z" id="Combined-Shape" fill="#9E9E9E" mask="url(#mask-3)"></path>
            </g>
        </g>
    </g>
</svg>